<?xml version="1.0" standalone="no"?><!DOCTYPE svg PUBLIC "-//W3C//DTD SVG 1.1//EN" "http://www.w3.org/Graphics/SVG/1.1/DTD/svg11.dtd"><svg t="1574993391846" class="icon" viewBox="0 0 1024 1024" version="1.1" xmlns="http://www.w3.org/2000/svg" p-id="7135" xmlns:xlink="http://www.w3.org/1999/xlink" width="32" height="32"><defs><style type="text/css"></style></defs><path d="M845.824 669.696v-355.84h-626.688v-20.992h647.68v376.832z" fill="#d81e06" p-id="7136"></path><path d="M140.288 747.52v-376.32H788.48v376.32h-648.192z m21.504-20.992h605.184V392.704h-605.184v333.824z" fill="#d81e06" p-id="7137"></path><path d="M454.656 681.984v-29.184l-8.192-1.024c-30.208-3.072-55.296-14.336-67.584-30.208l-2.56-3.584 22.528-5.632 1.024 1.024c9.216 8.192 26.112 14.336 44.544 16.896l10.24 1.536v-64.512l-7.68-1.024c-29.696-4.608-46.592-11.776-53.76-15.872l-1.024-0.512c-7.68-5.632-20.48-16.384-20.48-33.28 0-25.088 31.744-46.592 75.264-51.2l8.192-1.024v-28.16h20.992v28.672l8.192 1.024c27.136 3.072 49.664 12.8 62.464 26.624l3.072 3.072-21.504 7.68-1.024-1.024c-9.216-7.168-24.064-12.288-40.448-14.848l-10.752-1.536v66.56l7.68 1.536c21.504 4.096 38.912 8.704 50.688 14.336 5.12 2.56 8.704 4.608 11.264 6.656l2.56 2.56c6.144 7.168 9.216 14.848 9.216 23.04 0 24.576-30.72 46.08-72.704 50.688l-8.192 1.024v29.184l-22.016 0.512z m20.992-50.176l10.752-1.536c24.064-3.584 49.664-15.36 49.664-29.184s-25.6-25.6-49.664-29.184l-10.752-1.536v61.44z m-31.232-144.384c-29.184 4.096-52.224 16.896-52.224 29.696s23.04 25.6 52.224 29.696l10.24 1.536v-61.952l-10.24 1.024z" fill="#d81e06" p-id="7138"></path></svg>