<?xml version="1.0" standalone="no"?><!DOCTYPE svg PUBLIC "-//W3C//DTD SVG 1.1//EN" "http://www.w3.org/Graphics/SVG/1.1/DTD/svg11.dtd"><svg t="1574993849490" class="icon" viewBox="0 0 1024 1024" version="1.1" xmlns="http://www.w3.org/2000/svg" p-id="13057" xmlns:xlink="http://www.w3.org/1999/xlink" width="32" height="32"><defs><style type="text/css"></style></defs><path d="M465.066667 469.333333H307.2c-8.533333 0-17.066667-8.533333-17.066667-17.066666s8.533333-17.066667 17.066667-17.066667h157.866667c8.533333 0 17.066667 8.533333 17.066666 17.066667s-8.533333 17.066667-17.066666 17.066666zM610.133333 618.666667H307.2c-8.533333 0-17.066667-8.533333-17.066667-17.066667s8.533333-17.066667 17.066667-17.066667h302.933333c8.533333 0 17.066667 8.533333 17.066667 17.066667 4.266667 8.533333-4.266667 17.066667-17.066667 17.066667z" fill="" p-id="13058"></path><path d="M558.933333 618.666667m-273.066666 0a273.066667 273.066667 0 1 0 546.133333 0 273.066667 273.066667 0 1 0-546.133333 0Z" fill="#FFDD48" p-id="13059"></path><path d="M712.533333 827.733333H213.333333c-8.533333 0-17.066667-8.533333-17.066666-17.066666V221.866667c0-8.533333 8.533333-17.066667 17.066666-17.066667h366.933334c8.533333 0 17.066667 8.533333 17.066666 17.066667s-8.533333 17.066667-17.066666 17.066666H234.666667v546.133334h460.8V388.266667c0-8.533333 8.533333-17.066667 17.066666-17.066667s17.066667 8.533333 17.066667 17.066667v418.133333c4.266667 12.8-4.266667 21.333333-17.066667 21.333333z" fill="" p-id="13060"></path><path d="M550.4 409.6c-4.266667 0-8.533333 0-12.8-4.266667-8.533333-8.533333-8.533333-21.333333 0-25.6l226.133333-234.666666c8.533333-8.533333 21.333333-8.533333 25.6 0 8.533333 8.533333 8.533333 21.333333 0 25.6l-226.133333 234.666666c-4.266667 0-8.533333 4.266667-12.8 4.266667z" fill="" p-id="13061"></path></svg>