<?xml version="1.0" standalone="no"?><!DOCTYPE svg PUBLIC "-//W3C//DTD SVG 1.1//EN" "http://www.w3.org/Graphics/SVG/1.1/DTD/svg11.dtd"><svg t="1574993788952" class="icon" viewBox="0 0 1024 1024" version="1.1" xmlns="http://www.w3.org/2000/svg" p-id="12230" xmlns:xlink="http://www.w3.org/1999/xlink" width="32" height="32"><defs><style type="text/css"></style></defs><path d="M911.16 446.11a28.27 28.27 0 0 0-15.82-48l-105.25-14.83v0.27a13.52 13.52 0 0 0-2.62-0.53 13.76 13.76 0 0 0-13.76 13.75 13.62 13.62 0 0 0 12.4 13.48v0.2l105.15 15.66-169.32 169a61.49 61.49 0 0 0-17.39 53.65l39.29 234.49-201.51-108.36a65.49 65.49 0 0 0-62 0L278.87 883.26l39.29-234.49a61.36 61.36 0 0 0-17.37-53.65l-169.31-169 231-34.41a63.94 63.94 0 0 0 48.36-35.18l100.49-208.47 100.45 208.46a64.08 64.08 0 0 0 48.33 35.18l17.1 2.55v-0.3a11.63 11.63 0 0 0 1.66 0.34 13.76 13.76 0 0 0 13.76-13.75 13.58 13.58 0 0 0-11.44-13.29v-0.27l-17.09-3.23a35.72 35.72 0 0 1-26.94-19.48L536.8 135.8a28.26 28.26 0 0 0-50.92 0l-100.4 208.25a35.79 35.79 0 0 1-27.15 19.68l-231 34.39a28.27 28.27 0 0 0-15.8 48l169.39 169.1a33.06 33.06 0 0 1 9.35 28.89L251 878.61a28.28 28.28 0 0 0 41.26 29.56l201.43-108.39a37.2 37.2 0 0 1 35.25 0l201.45 108.39a28.27 28.27 0 0 0 41.26-29.56L732.36 644.2a33.29 33.29 0 0 1 9.48-29.06z" fill="#3585F9" p-id="12231"></path><path d="M605.5 433.4v-0.15l-9.48-1.79a19.81 19.81 0 0 1-14.93-10.8l-55.64-115.55a15.67 15.67 0 0 0-28.23 0l-55.64 115.43a19.86 19.86 0 0 1-15.06 10.91l-128 19.06a15.67 15.67 0 0 0-8.76 26.59l93.9 93.75a18.31 18.31 0 0 1 5.18 16L367 716.84a15.67 15.67 0 0 0 22.88 16.38l111.64-60.07a20.56 20.56 0 0 1 19.54 0l111.66 60.07a15.67 15.67 0 0 0 22.87-16.38l-21.74-129.93a18.44 18.44 0 0 1 5.25-16.11l93.9-93.69a15.67 15.67 0 0 0-8.77-26.59l-58.33-8.23v0.14" fill="#BAD4FF" p-id="12232"></path><path d="M624.16 433.08l0.03-0.21" fill="#3585F9" p-id="12233"></path><path d="M599.41 515.82a10.08 10.08 0 0 0-9.28 6.07 80.13 80.13 0 0 1-147.53 0 10.08 10.08 0 0 0-9.28-6.07A10.15 10.15 0 0 0 424 530a100.4 100.4 0 0 0 184.69 0 10.15 10.15 0 0 0-9.3-14.18z" fill="#3585F9" p-id="12234"></path></svg>