<?xml version="1.0" standalone="no"?><!DOCTYPE svg PUBLIC "-//W3C//DTD SVG 1.1//EN" "http://www.w3.org/Graphics/SVG/1.1/DTD/svg11.dtd"><svg t="1574993949631" class="icon" viewBox="0 0 1029 1024" version="1.1" xmlns="http://www.w3.org/2000/svg" p-id="15203" xmlns:xlink="http://www.w3.org/1999/xlink" width="32.15625" height="32"><defs><style type="text/css"></style></defs><path d="M557.623762 912.475248c-197.70297 0-354.851485-157.148515-354.851485-354.851486s157.148515-354.851485 354.851485-354.851485 354.851485 157.148515 354.851486 354.851485-157.148515 354.851485-354.851486 354.851486z m0-202.772278c86.178218 0 152.079208-65.90099 152.079208-152.079208s-65.90099-152.079208-152.079208-152.079208-152.079208 65.90099-152.079208 152.079208 65.90099 152.079208 152.079208 152.079208z" fill="#5AC8FA" p-id="15204"></path><path d="M435.960396 152.079208l-20.277228 5.069307c-30.415842 10.138614-60.831683 20.277228-91.247524 40.554455l-15.207921 10.138614L253.465347 152.079208c-10.138614-10.138614-25.346535-10.138614-35.485149 0L152.079208 217.980198c-10.138614 10.138614-10.138614 25.346535 0 35.485149l55.762376 55.762376-10.138614 15.207921c-20.277228 30.415842-30.415842 60.831683-40.554455 91.247524l-5.069307 20.277228H76.039604c-15.207921 0-25.346535 10.138614-25.346535 25.346535v91.247524c0 15.207921 10.138614 25.346535 25.346535 25.346535H152.079208l5.069307 20.277228c10.138614 30.415842 20.277228 65.90099 40.554455 91.247525l10.138614 15.20792L152.079208 760.39604c-10.138614 10.138614-10.138614 25.346535 0 35.485148L217.980198 861.782178c10.138614 10.138614 25.346535 10.138614 35.485149 0l55.762376-55.762376 15.207921 10.138614c30.415842 15.207921 60.831683 30.415842 91.247524 40.554455l20.277228 5.069307v76.039604c0 15.207921 10.138614 25.346535 25.346535 25.346535h91.247524c15.207921 0 25.346535-10.138614 25.346535-25.346535V861.782178l20.277228-5.069307c30.415842-10.138614 65.90099-20.277228 91.247525-40.554455l15.20792-10.138614L760.39604 861.782178c10.138614 10.138614 25.346535 10.138614 35.485148 0l65.90099-65.90099c10.138614-10.138614 10.138614-25.346535 0-35.485148l-55.762376-55.762377 10.138614-15.20792c15.207921-30.415842 30.415842-60.831683 40.554455-91.247525l5.069307-20.277228h76.039604c15.207921 0 25.346535-10.138614 25.346535-25.346535V461.306931c0-15.207921-10.138614-25.346535-25.346535-25.346535H861.782178l-5.069307-20.277228c-10.138614-30.415842-20.277228-65.90099-40.554455-91.247524l-10.138614-15.207921L861.782178 253.465347c10.138614-10.138614 10.138614-25.346535 0-35.485149L795.881188 152.079208c-10.138614-10.138614-25.346535-10.138614-35.485148 0l-55.762377 55.762376-15.20792-10.138614c-30.415842-15.207921-60.831683-30.415842-91.247525-40.554455l-20.277228-5.069307V76.039604c0-15.207921-10.138614-25.346535-25.346535-25.346535H461.306931c-15.207921 0-25.346535 10.138614-25.346535 25.346535V152.079208z m-50.693069-35.485149v-40.554455C385.267327 35.485149 420.752475 0 461.306931 0h91.247524c40.554455 0 76.039604 35.485149 76.039604 76.039604v40.554455c25.346535 5.069307 45.623762 15.207921 70.970297 30.415842l25.346535-25.346535c30.415842-30.415842 76.039604-30.415842 106.455446 0l65.90099 65.90099c30.415842 30.415842 30.415842 76.039604 0 106.455446l-25.346535 25.346535c10.138614 20.277228 20.277228 45.623762 30.415842 70.970297h40.554455c40.554455 0 76.039604 35.485149 76.039604 76.039604V557.623762c0 40.554455-35.485149 76.039604-76.039604 76.039604h-40.554455c-5.069307 25.346535-15.207921 45.623762-30.415842 70.970297l25.346535 25.346535c30.415842 30.415842 30.415842 76.039604 0 106.455446l-65.90099 65.90099c-30.415842 30.415842-76.039604 30.415842-106.455446 0l-25.346535-25.346535c-20.277228 10.138614-45.623762 20.277228-70.970297 30.415842v40.554455c0 40.554455-35.485149 76.039604-76.039604 76.039604H461.306931c-40.554455 0-76.039604-35.485149-76.039604-76.039604v-40.554455c-25.346535-5.069307-45.623762-15.207921-70.970297-30.415842l-25.346535 25.346535c-30.415842 30.415842-76.039604 30.415842-106.455445 0l-65.900991-65.90099c-30.415842-30.415842-30.415842-76.039604 0-106.455446l25.346535-25.346535c-10.138614-20.277228-20.277228-45.623762-30.415842-70.970297h-35.485148C35.485149 633.663366 0 598.178218 0 557.623762V461.306931c0-40.554455 35.485149-76.039604 76.039604-76.039604h40.554455c5.069307-25.346535 15.207921-45.623762 30.415842-70.970297l-30.415842-25.346535c-30.415842-30.415842-30.415842-76.039604 0-106.455445l65.900991-65.900991c30.415842-30.415842 76.039604-30.415842 106.455445 0l25.346535 25.346535c25.346535-10.138614 45.623762-20.277228 70.970297-25.346535zM506.930693 684.356436c-96.316832 0-177.425743-81.108911-177.425743-177.425743S410.613861 329.50495 506.930693 329.50495s177.425743 81.108911 177.425743 177.425743-81.108911 177.425743-177.425743 177.425743z m0-50.69307c70.970297 0 126.732673-55.762376 126.732673-126.732673S577.90099 380.19802 506.930693 380.19802 380.19802 435.960396 380.19802 506.930693s55.762376 126.732673 126.732673 126.732673z" fill="" p-id="15205"></path></svg>