<?xml version="1.0" standalone="no"?><!DOCTYPE svg PUBLIC "-//W3C//DTD SVG 1.1//EN" "http://www.w3.org/Graphics/SVG/1.1/DTD/svg11.dtd"><svg t="1573184040344" class="icon" viewBox="0 0 1024 1024" version="1.1" xmlns="http://www.w3.org/2000/svg" p-id="2410" xmlns:xlink="http://www.w3.org/1999/xlink" width="200" height="200"><defs><style type="text/css"></style></defs><path d="M699.456 277.76H99.264a22.528 22.528 0 0 0-22.4 22.4v467.136c0 12.288 10.112 22.4 22.4 22.4h374.08v-0.064l0.32 0.064a22.4 22.4 0 1 0 0-44.864l-0.32 0.064v-0.064H558.656v0.128l-0.576-0.128a22.4 22.4 0 1 0 0 44.864l0.576-0.128v0.128h140.736c12.288 0 22.4-10.048 22.4-22.4V300.16a22.4 22.4 0 0 0-22.336-22.4z" fill="" p-id="2411"></path><path d="M932.8 383.488a32.832 32.832 0 0 0-32.832-32.832c-3.136 0-6.016 0.96-8.832 1.792l-0.256-0.256-214.08 53.568v256l210.368 52.352 0.448 0.128 2.496 0.64 0.128-0.064a33.28 33.28 0 0 0 9.728 1.92 32.832 32.832 0 0 0 32.832-32.832V678.4l-0.32-290.112a29.248 29.248 0 0 0 0.32-4.8z" fill="" p-id="2412"></path><path d="M721.6 626.816V440.768l166.4-41.664v269.12zM121.664 322.56h555.328v422.336H121.664z" fill="#AA00C0" p-id="2413"></path><path d="M308.288 435.904c0-26.048 18.496-36.672 41.024-23.68l169.472 97.92c22.592 12.992 22.592 34.304 0 47.36l-169.472 97.792c-22.592 13.12-41.024 2.496-41.024-23.616V435.904z" fill="" p-id="2414"></path><path d="M331.328 638.464c0.064-0.512-0.64-2.688-0.64-6.784V435.904c0-5.568 1.344-7.488 1.408-7.488 0.256 0.64 2.752 1.344 6.016 3.2l169.472 97.92c3.648 2.048 5.12 3.776 5.632 4.544-0.512 0.192-1.984 1.92-5.568 3.968L338.112 635.904a16.96 16.96 0 0 1-6.784 2.56zM172.672 705.024a16 16 0 0 1-32 0V356.992a16 16 0 0 1 32 0v348.032z" fill="#FFFFFF" p-id="2415"></path><path d="M638.976 340.992a16 16 0 0 1 0 32H156.672a16 16 0 0 1 0-32h482.304z" fill="#FFFFFF" p-id="2416"></path></svg>